<svg xmlns="http://www.w3.org/2000/svg" width="1106" height="389" viewBox="0 0 1106 389" fill="none"><path fill-rule="evenodd" clip-rule="evenodd" d="M0 114.474L171 0.366577V25.5511L0 139.658V114.474ZM0 163.474L171 49.3666V74.5511L0 188.658V163.474ZM0 210.474L171 96.3666V121.551L0 235.658V210.474ZM0 256.474L171 142.367V167.551L0 281.658V256.474ZM0 305.474L171 191.367V216.551L0 330.658V305.474ZM0.710056 352L171 238.367V263.551L38.4513 352H0.710056ZM171 352V333.367L143.076 352H171ZM107.386 352L171 309.551V284.367L69.6452 352H107.386Z" fill="white"></path><path fill-rule="evenodd" clip-rule="evenodd" d="M359 114.107L188 0V25.1845L359 139.292V114.107ZM359 163.107L188 49V74.1845L359 188.292V163.107ZM359 210.107L188 96V121.185L359 235.292V210.107ZM359 256.107L188 142V167.185L359 281.292V256.107ZM359 305.107L188 191V216.185L359 330.292V305.107ZM358.29 351.633L188 238V263.185L320.549 351.633H358.29ZM188 351.633V333L215.924 351.633H188ZM251.614 351.633L188 309.185V284L289.355 351.633H251.614Z" fill="#FD6F08"></path><path d="M450 275.312H425.938V300.688H448.375V315.375H425.938V352H409.062V260.625H450V275.312ZM521.75 352H504.688L499.438 328.938H475.625L470.375 352H453.375L476 260.25H499.062L521.75 352ZM496.25 313.875L491.375 292.625C491.292 292.292 490.667 289.25 489.5 283.5C488.375 277.708 487.729 274.042 487.562 272.5C486.979 276.333 486.312 280.188 485.562 284.062C484.812 287.938 482.625 297.875 479 313.875H496.25ZM559 353.25C548.708 353.25 540.792 349.167 535.25 341C529.75 332.833 527 321.333 527 306.5C527 291.625 529.833 280.042 535.5 271.75C541.167 263.458 549.083 259.312 559.25 259.312C565.875 259.312 572.354 261.375 578.688 265.5L573.062 279.312C570.688 277.688 568.5 276.438 566.5 275.562C564.5 274.646 562.375 274.188 560.125 274.188C555.25 274.188 551.396 277.021 548.562 282.688C545.771 288.354 544.375 296.312 544.375 306.562C544.375 327.729 549.896 338.312 560.938 338.312C565.729 338.312 570.792 336.771 576.125 333.688V348.812C571.667 351.771 565.958 353.25 559 353.25ZM645.5 352H628.5V311.938H606.062V352H589.062V260.625H606.062V296.938H628.5V260.625H645.5V352ZM722 352H704.938L699.688 328.938H675.875L670.625 352H653.625L676.25 260.25H699.312L722 352ZM696.5 313.875L691.625 292.625C691.542 292.292 690.917 289.25 689.75 283.5C688.625 277.708 687.979 274.042 687.812 272.5C687.229 276.333 686.562 280.188 685.812 284.062C685.062 287.938 682.875 297.875 679.25 313.875H696.5ZM730.062 260.625H754.5C765.083 260.625 773.333 264.542 779.25 272.375C785.208 280.208 788.188 291.458 788.188 306.125C788.188 320.792 785.104 332.104 778.938 340.062C772.812 348.021 763.979 352 752.438 352H730.062V260.625ZM747.062 275.312V337.125H752.562C758.729 337.125 763.292 334.542 766.25 329.375C769.25 324.208 770.75 316.396 770.75 305.938C770.75 285.521 765.125 275.312 753.875 275.312H747.062ZM861.875 352H844.812L839.562 328.938H815.75L810.5 352H793.5L816.125 260.25H839.188L861.875 352ZM836.375 313.875L831.5 292.625C831.417 292.292 830.792 289.25 829.625 283.5C828.5 277.708 827.854 274.042 827.688 272.5C827.104 276.333 826.438 280.188 825.688 284.062C824.938 287.938 822.75 297.875 819.125 313.875H836.375ZM884.938 338.438C888.146 338.438 890.583 337.562 892.25 335.812C893.917 334.062 894.75 331.646 894.75 328.562C894.75 325.479 893.771 322.667 891.812 320.125C889.896 317.583 886.854 314.896 882.688 312.062C878.562 309.229 875.396 306.521 873.188 303.938C871.188 301.438 869.625 298.646 868.5 295.562C867.417 292.438 866.875 288.854 866.875 284.812C866.875 276.979 869.042 270.771 873.375 266.188C877.75 261.604 883.521 259.312 890.688 259.312C897.896 259.312 904.708 261.271 911.125 265.188L905.5 278.812C900.292 275.812 895.854 274.312 892.188 274.312C889.479 274.312 887.375 275.208 885.875 277C884.375 278.792 883.625 281.25 883.625 284.375C883.625 287.458 884.5 290.167 886.25 292.5C888.042 294.792 891.146 297.396 895.562 300.312C901.604 304.354 905.75 308.438 908 312.562C910.375 316.771 911.562 321.521 911.562 326.812C911.562 335.354 909.396 341.896 905.062 346.438C900.771 350.979 894.604 353.25 886.562 353.25C878.521 353.25 871.708 351.688 866.125 348.562V331.75C872.958 336.208 879.229 338.438 884.938 338.438ZM1038.69 352H1022.56V290.062C1022.56 285.146 1022.85 279.896 1023.44 274.312H1022.94L1005.62 352H987.062L969.688 274.188H969C969.792 280.021 970.188 285.521 970.188 290.688V352H954.438V260.625H980.562L996.188 332.438H996.688L1012.19 260.625H1038.69V352ZM1084 353.25C1073.71 353.25 1065.79 349.167 1060.25 341C1054.75 332.833 1052 321.333 1052 306.5C1052 291.625 1054.83 280.042 1060.5 271.75C1066.17 263.458 1074.08 259.312 1084.25 259.312C1090.88 259.312 1097.35 261.375 1103.69 265.5L1098.06 279.312C1095.69 277.688 1093.5 276.438 1091.5 275.562C1089.5 274.646 1087.38 274.188 1085.12 274.188C1080.25 274.188 1076.4 277.021 1073.56 282.688C1070.77 288.354 1069.38 296.312 1069.38 306.562C1069.38 327.729 1074.9 338.312 1085.94 338.312C1090.73 338.312 1095.79 336.771 1101.12 333.688V348.812C1096.67 351.771 1090.96 353.25 1084 353.25Z" fill="white"></path></svg>